<svg t="1686968323276" class="icon" viewBox="0 0 1024 1024" version="1.1"
    xmlns="http://www.w3.org/2000/svg" p-id="6883" width="1em" height="1em">
    <path
        d="M384 896a42.666667 42.666667 0 0 1-42.666667-42.666667v-170.666666H170.666667a42.666667 42.666667 0 1 1 0-85.333334h213.333333a42.666667 42.666667 0 0 1 42.666667 42.666667v213.333333a42.666667 42.666667 0 0 1-42.666667 42.666667z"
        p-id="6884"></path>
    <path
        d="M640 896a42.666667 42.666667 0 0 1-42.666667-42.666667v-213.333333a42.666667 42.666667 0 0 1 42.666667-42.666667h213.333333a42.666667 42.666667 0 1 1 0 85.333334h-170.666666v170.666666a42.666667 42.666667 0 0 1-42.666667 42.666667zM896 384a42.666667 42.666667 0 0 1-42.666667 42.666667h-213.333333a42.666667 42.666667 0 0 1-42.666667-42.666667V170.666667a42.666667 42.666667 0 1 1 85.333334 0v170.666666h170.666666a42.666667 42.666667 0 0 1 42.666667 42.666667zM426.666667 384a42.666667 42.666667 0 0 1-42.666667 42.666667H170.666667a42.666667 42.666667 0 0 1 0-85.333334h170.666666V170.666667a42.666667 42.666667 0 0 1 85.333334 0v213.333333z"
        p-id="6885"></path>
</svg>