<svg t="1692174851385" class="icon" viewBox="0 0 1024 1024" version="1.1" xmlns="http://www.w3.org/2000/svg" p-id="3504" width="1em" height="1em">
	<path d="M853.75 927.42v-84.13h74.3a32 32 0 0 0 32-32 32 32 0 0 0-32-32h-126.3a12 12 0 0 0-12 12v136.13a32 32 0 0 0 32 32 32 32 0 0 0 32-32zM96 843.29h82.82v84.13a32 32 0 0 0 32 32 32 32 0 0 0 32-32V791.29a12 12 0 0 0-12-12H96a32 32 0 0 0-32 32 32 32 0 0 0 32 32zM928.05 169.58h-74.3v-73a32 32 0 0 0-32-32 32 32 0 0 0-32 32v125a12 12 0 0 0 12 12h126.3a32 32 0 0 0 32-32 32 32 0 0 0-32-32zM179.55 96.58v73H96.74a32 32 0 0 0-32 32 32 32 0 0 0 32 32h134.81a12 12 0 0 0 12-12v-125a32 32 0 0 0-32-32 32 32 0 0 0-32 32zM752.21 787.56h-482.4a34 34 0 0 1-34-34v-482.4a34 34 0 0 1 34-34h482.4a34 34 0 0 1 34 34v482.4a34 34 0 0 1-34 34z m-452.4-64h422.4v-422.4h-422.4z" p-id="3505">
	</path>
</svg>
