<svg t="1686705102011" class="icon" viewBox="0 0 1024 1024" version="1.1" xmlns="http://www.w3.org/2000/svg" p-id="1086" width="1em" height="1em">
	<path d="M831.86694336 374.89062525l-117.66357422-130.51757812A37.73803686 37.73803686 0 0 0 685.85864283 231.84863256h-37.90283228a38.23242162 38.23242162 0 0 0-32.95898463 17.79785156 120.95947291 120.95947291 0 0 1-207.31201147 0 38.23242162 38.23242162 0 0 0-32.95898463-17.79785156h-37.90283152a37.90283228 37.90283228 0 0 0-28.34472707 12.68920924l-116.34521459 130.35278345a38.23242162 38.23242162 0 0 0 1.4831543 52.56957983l40.20996068 40.04516601a37.90283228 37.90283228 0 0 0 53.88793945 0 5.27343775 5.27343775 0 0 1 8.89892579 3.79028346v283.77685547a38.23242162 38.23242162 0 0 0 38.23242238 38.06762695h354.30908152a38.23242162 38.23242162 0 0 0 38.23242238-38.06762695V471.13085912a5.10864232 5.10864232 0 0 1 3.13110327-4.77905223 5.27343775 5.27343775 0 0 1 5.43823242 0.82397411 38.06762695 38.06762695 0 0 0 54.05273412 0l40.04516602-40.04516602a38.23242162 38.23242162 0 0 0 1.81274439-52.23998973z m-24.71923828 29.16870117l-40.20996069 40.20996069c-2.47192383 2.6367185-4.44946289 2.47192383-7.08618214 0a38.06762695 38.06762695 0 0 0-65.9179685 26.86157201v283.9416509a5.10864232 5.10864232 0 0 1-5.27343775 5.10864232H334.84545924a5.10864232 5.10864232 0 0 1-5.27343776-5.10864232V471.29565455A38.06762695 38.06762695 0 0 0 264.80761719 444.26928711a5.43823242 5.43823242 0 0 1-7.41577149 0l-40.53955078-40.20996068a5.10864232 5.10864232 0 0 1 0-7.08618215l117.33398412-130.51757813a5.27343775 5.27343775 0 0 1 3.95507813-1.64794896h37.90283228a4.77905299 4.77905299 0 0 1 4.1198728 1.64794896 153.91845678 153.91845678 0 0 0 263.6718755 0 5.43823242 5.43823242 0 0 1 4.1198728-1.64794896h37.90283228a5.27343775 5.27343775 0 0 1 3.95507813 1.81274439L807.31249975 396.64355494a5.10864232 5.10864232 0 0 1-0.16479467 7.41577148z" fill="currentColor" p-id="1087">
	</path>
	<path d="M397.79711914 484.47924779a16.47949193 16.47949193 0 0 0-16.47949193 16.4794927v181.27441355a16.47949193 16.47949193 0 0 0 32.95898386 0v-181.27441355a16.47949193 16.47949193 0 0 0-16.47949193-16.4794927z" fill="currentColor" p-id="1088">
	</path>
</svg>
