<svg t="1686752460184" class="icon" viewBox="0 0 1024 1024" version="1.1" xmlns="http://www.w3.org/2000/svg" p-id="1966" width="200" height="200"><path d="M693.215 152.9225C574.3025 116.405 511.865 62 511.865 62s-62.415 54.4275-181.2375 90.9225c-74.0025 22.725-199.3275 0-199.3275 0s-22.6575 245.4525 4.5225 450c8.82 66.4425 51.6825 127.5525 105.4125 179.865l47.385-47.385 223.245-223.245L805.1075 218.8925 867.275 156.725c-40.455 5.31-120.555 12.6225-174.06-3.8025z" fill="#fab6fb" p-id="1967"></path><path d="M892.7 152.9225s-9.8775 1.755-25.425 3.8025l-62.1675 62.1675-293.2425 293.2425-223.245 223.245-47.385 47.385C352.9025 891.485 511.865 962 511.865 962s349.11-154.5525 376.3125-359.0775 4.5225-450 4.5225-450z" fill="#eec6ef" p-id="1968"></path><path d="M600.56 510.875zM688.04 496.4975zM622.79 513.8zM668.33 506.3075zM648.3275 512.1125z" fill="#FFFFFF" p-id="1969"></path><path d="M496.4075 527.5925l-18.9675 18.9675-172.845 172.8225 0.0225 0.0225 191.79-191.8125zM544.895 479.105l-12.8925 12.8925 12.8925-12.8925v-0.0225l-33.165 33.165-15.3225 15.345 48.4875-48.4875z" fill="#B77D20" p-id="1970"></path><path d="M304.6175 719.405l129.6225-129.645-129.6225 129.645zM496.4075 527.5925l-14.22 14.22zM496.4075 527.5925l15.3225-15.3225 33.1875-33.165h-0.0225z" fill="#C48C3B" p-id="1971"></path><path d="M709.415 479.915a116.3925 116.3925 0 0 1-17.01 13.905c5.9625-4.05 11.745-8.5275 17.0325-13.8375 39.105-39.105 44.4375-98.865 16.605-143.955 27.7875 45.0675 22.4325 104.8275-16.6275 143.8875z" fill="#FFFFFF" p-id="1972"></path><path d="M532.0025 302.525a132.525 132.525 0 0 0-15.75 19.305c-1.035 1.5075-1.9575 3.06-2.9025 4.59a134.5275 134.5275 0 0 0-9.3375 17.7075c-0.6075 1.3725-1.305 2.7225-1.845 4.1175a133.47 133.47 0 0 0-6.7275 22.725c-0.225 1.0575-0.27 2.16-0.45 3.2175a135.315 135.315 0 0 0-0.135 44.8425c0.27 1.6425 0.36 3.285 0.6975 4.905 1.2825 6.345 3.2175 12.5775 5.445 18.72l-41.715 41.715-23.265 23.265-0.765 4.6125-5.625 33.48-3.2625 19.4175-65.3625 11.8125-12.8475 47.16-48.24 24.75-2.205 59.535 162.1575-162.1575 28.2825-28.2825-28.2825 28.2825-162.1575 162.1575-0.2925 7.92 7.2225 3.06 129.6225-129.6225 43.2-43.2 4.7475-4.7475 14.22-14.22 48.4875-48.4875 46.845-46.845a51.57 51.57 0 1 1 72.9225-72.9225l56.79-56.79a133.965 133.965 0 0 0-189.4725-0.0225z" fill="#f68ec2" p-id="1973"></path><path d="M740.51 327.1175a132.435 132.435 0 0 0-19.0575-24.57l-56.79 56.79a51.5925 51.5925 0 0 1-72.945 72.945l-59.7375 59.7375-35.595 35.595-191.79 191.79 3.06 7.2 7.92-0.2925 59.535-2.205 24.75-48.24 47.16-12.8475 11.8125-65.3625 19.4175-3.2625 33.48-5.625 4.6125-0.765 23.265-23.265 41.805-41.805a134.55 134.55 0 0 0 23.625 6.255c5.67 0.9225 11.4075 1.44 17.1675 1.6425 1.935 0.0675 3.915 0.315 5.8725 0.315a135.72 135.72 0 0 0 23.355-2.25c1.305-0.225 2.5425-0.675 3.825-0.945a133.65 133.65 0 0 0 19.1025-5.67c2.0025-0.765 3.9825-1.62 5.9625-2.475 5.6925-2.4975 11.2725-5.445 16.65-8.775 1.665-1.035 3.375-1.9575 4.995-3.06a132.75 132.75 0 0 0 19.5075-15.93c44.775-44.82 50.9175-113.2875 19.035-164.925z" fill="#f37eb9" p-id="1974"></path></svg>