<svg t="1686751569502" class="icon" viewBox="0 0 1038 1024" version="1.1" xmlns="http://www.w3.org/2000/svg" p-id="1830" width="200" height="200"><path d="M903.76792307 701.19717969h-31.06291864a115.39250579 115.39250579 0 0 0-10.90645236-26.35415942l21.90596417-21.90596418a14.62879191 14.62879191 0 0 0 0-20.69620387l-23.80435688-23.80435765a14.64740317 14.64740317 0 0 0-20.6775926 0l-21.90596495 21.90596418a114.90860121 114.90860121 0 0 0-26.27971203-10.88784111v-30.85818927a14.68462727 14.68462727 0 0 0-14.62879192-14.6287919H742.77676617a14.66601522 14.66601522 0 0 0-14.62879191 14.6287919v30.96985998a114.70387262 114.70387262 0 0 0-26.29832409 10.8878411l-21.8873529-21.90596494a14.66601522 14.66601522 0 0 0-20.69620389 0l-23.80435764 23.80435763a14.66601522 14.66601522 0 0 0 0 20.69620389l21.90596418 21.88735291a114.70387262 114.70387262 0 0 0-10.8878411 26.29832407h-30.89541259a14.64740317 14.64740317 0 0 0-14.62879191 14.5543453v33.63133169a14.66601522 14.66601522 0 0 0 14.62879191 14.6287919h30.95124794a115.80196297 115.80196297 0 0 0 10.90645314 26.27971283l-21.90596494 21.90596416a14.64740317 14.64740317 0 0 0 0 20.67759261l23.80435764 23.80435687a14.62879191 14.62879191 0 0 0 20.69620388 0L701.9240968 834.90359286a115.59723438 115.59723438 0 0 0 26.29832407 10.90645236v30.89541336a14.64740317 14.64740317 0 0 0 14.62879192 14.61017988h33.63133169a14.64740317 14.64740317 0 0 0 14.61017988-14.61017988v-30.98847124a116.39753671 116.39753671 0 0 0 26.29832485-10.81339448l21.88735213 21.88735213a14.62879191 14.62879191 0 0 0 20.69620465 0l23.80435687-23.80435687a14.64740317 14.64740317 0 0 0 0-20.67759261l-21.90596417-21.90596418a115.39250579 115.39250579 0 0 0 10.90645314-26.27971281H903.76792307a14.66601522 14.66601522 0 0 0 14.61017987-14.62879191V715.78874831a14.64740317 14.64740317 0 0 0-14.61017988-14.59156861z m-144.05451511 95.77577947a64.34062772 64.34062772 0 1 1 64.34062773-64.34062773 64.34062772 64.34062772 0 0 1-64.43368639 64.34062772z" fill="#71e9c6" p-id="1831"></path><path d="M727.45934108 732.63233143a32.17961949 32.17961949 0 1 0 64.34062772 0 32.17961949 32.17961949 0 0 0-64.34062772 0z" fill="#4acfa8" p-id="1832"></path><path d="M780.93073974 148.13206782h-63.27976144c0-18.29529533-17.45776969-31.63988033-35.45527777-31.63988032H149.08232557A32.88686393 32.88686393 0 0 0 116.49324811 149.63961538v658.37007888S151.1296115 907.48920046 208.17445492 907.48920046h465.4412544a191.70045293 191.70045293 0 0 1-89.01973432-80.64447169H213.85102174s-33.63133169-11.35313363-33.63133169-34.17107085l389.24497717-0.20472861 0.14889403 0.31639853a188.40618261 188.40618261 0 0 1-9.30584771-58.42210898 188.89008642 188.89008642 0 0 1 154.96096825-185.78193343l1.86116939-351.48184955h31.63988032l0.52112713 348.37369655a187.14058774 187.14058774 0 0 1 63.27976144 11.16701631V184.87155252S807.37795706 148.13206782 780.93073974 148.13206782z" fill="#98d9c6" p-id="1833"></path><path d="M395.20337273 883.85234887l-6.68159853-13.38180831a72.88339563 72.88339563 0 0 0 5.89990746 13.38180831zM445.78995825 774.47142047h0.01861128-0.01861127zM445.80856953 774.47142047l13.32597295-1.20975952a74.70734169 74.70734169 0 0 0-13.32597295 1.20975952z" fill="#FFFFFF" p-id="1834"></path></svg>