<svg t="1686751999255" class="icon" viewBox="0 0 1024 1024" version="1.1"
    xmlns="http://www.w3.org/2000/svg" p-id="1896" width="200" height="200">
    <path
        d="M881.140625 596.375v221.484375a63.28125001 63.28125001 0 0 1-63.28125 63.28125H486.91953125c2.60507812-10.11445313 3.98671875-20.7140625 3.98671876-31.640625 0-69.89414062-56.66835938-126.5625-126.56250002-126.5625s-126.5625 56.66835938-126.5625 126.5625c0 10.9265625 1.38164062 21.52617187 3.98671876 31.640625H206.140625a63.28125001 63.28125001 0 0 1-63.28125-63.28125V596.375h42.1875a63.28125001 63.28125001 0 0 0 63.28125-63.28125001v-31.64062499a63.28125001 63.28125001 0 0 0-63.28125-63.28125H142.859375V206.140625a63.28125001 63.28125001 0 0 1 63.28125-63.28125h330.93984375A126.79453125 126.79453125 0 0 0 533.09375001 174.5c0 69.89414062 56.66835938 126.5625 126.56249998 126.5625s126.5625-56.66835938 126.5625-126.5625c0-10.9265625-1.38164062-21.52617187-3.98671874-31.640625H817.859375a63.28125001 63.28125001 0 0 1 63.28125 63.28125v232.03125h-42.1875a63.28125001 63.28125001 0 0 0-63.28125 63.28125v31.64062501a63.28125001 63.28125001 0 0 0 63.28125 63.28124999h42.1875z"
        fill="#eda131" fill-opacity=".6" p-id="1897"></path>
    <path
        d="M659.65625001 174.5m-84.37500002 0a84.375 84.375 0 1 0 168.75000002 0 84.375 84.375 0 1 0-168.75000002 0Z"
        fill="#eda131" p-id="1898"></path>
    <path
        d="M364.34374999 849.5m-84.37499998 0a84.375 84.375 0 1 0 168.74999998 0 84.375 84.375 0 1 0-168.74999998 0Z"
        fill="#eda131" p-id="1899"></path>
    <path
        d="M641.12539062 185.046875h42.18750001v441.80859375a95.96601562 95.96601562 0 1 1-191.93203125 0V401.78515625a52.97695313 52.97695313 0 1 0-105.94335938 0v449.24414062h-42.1875V401.78515625a95.16445313 95.16445313 0 1 1 190.31835938 0v225.0703125a53.77851563 53.77851563 0 0 0 107.55703125 0V185.046875z"
        fill="#eda131" p-id="1900"></path>
</svg>