<svg t="1686705208956" class="icon" viewBox="0 0 1024 1024" version="1.1" xmlns="http://www.w3.org/2000/svg" p-id="1241" width="1em" height="1em">
	<path d="M350.78342041 626.75858575a284.3816781 284.3816781 0 1 0 568.7633575 0 284.3816781 284.3816781 0 1 0-568.7633575 0z" fill="#89daf4" p-id="1242">
	</path>
	<path d="M706.8123655 872.13899484H593.92592497c-10.6750304 0-19.32166293-8.64663253-19.32166293-19.321664v-186.74462934c0-26.2767072-21.6887552-47.62771093-48.30415894-47.627712h-36.46963946c-26.61540267 0-48.30415787 21.3500608-48.30415787 47.62865494v186.7436864c0 10.6750304-8.64663253 19.32166293-19.32166293 19.321664H309.2691431c-47.9173472 0-86.9474848-38.69144213-86.94748373-86.27103787V546.71331484h-51.3948704c-19.7084736 0-37.2432608-11.6892288-44.68134613-29.85140374-7.53620373-18.25934933-3.47846507-38.25651627 10.577856-52.16849066l337.1149088-334.3128896c18.79050667-18.64616 49.41553067-18.64616 68.25415253 0l97.6225152 96.8498368a19.31694613 19.31694613 0 0 1 0.0962304 27.3399648 19.31694613 19.31694613 0 0 1-27.3399648 0.09623146L514.94862684 157.8167271a9.8542368 9.8542368 0 0 0-13.81480107 0L164.01891697 492.08150044c-3.8162176 3.8162176-2.9463648 7.9220704-2.077456 10.04764266 0.72456213 1.7868768 3.0916544 5.8927296 8.985328 5.8927296h70.71653333c10.67597333 0 19.32166293 8.64663253 19.32166294 19.321664v258.47536107c0 26.2776512 21.6896992 47.62865493 48.30415786 47.62865493h93.56572054v-167.42296746c0-47.57959573 39.0301376-86.27103787 86.9474848-86.27103787h36.46963946c47.9173472 0 86.9474848 38.69144213 86.9474848 86.27103787v167.42296746h93.56477654c26.61540267 0 48.30415787-21.3500608 48.30415893-47.62865493v-258.47441813c0-10.67597333 8.64663253-19.32166293 19.32166293-19.32166294h70.71747627c5.8927296 0 8.25982187-4.1067968 8.98438507-5.8936736 0.86985173-2.1255712 1.73876053-6.23142507-2.07651307-10.04764266L700.38847857 341.7112231a19.27354773 19.27354773 0 0 1-5.7002688-13.6223392l-0.62738773-131.33919466c0-0.09623147-0.1452896-9.46742613-9.660832-9.46742614h-55.9847072c-10.6750304 0-19.32166293-8.64663253-19.321664-19.32166293s8.64663253-19.32166293 19.321664-19.321664h55.98376426c33.1855232 0 48.20792747 28.01641173 48.30415787 47.9664064l0.58021653 123.31994987L879.25820977 464.69342044c14.05726507 13.91103147 18.11405973 33.90914133 10.57879893 52.16849066a48.1447168 48.1447168 0 0 1-44.68134613 29.85140374h-51.39581333V785.86795697c0 47.53053653-39.0301376 86.27103787-86.94748374 86.27103787z" fill="currentColor" p-id="1243">
	</path>
	<path d="M722.81886567 893.12925088H602.40666357c-11.38669909 0-20.60977379-9.2230747-20.60977493-20.60977379v-199.19427243c0-28.02848768-23.13467221-50.80289166-51.52443505-50.80289166h-38.90094877c-28.38976285 0-51.52443506 22.77339819-51.52443506 50.80389745v199.19326664c0 11.38669909-9.2230747 20.60977379-20.60977379 20.60977379H298.77276292c-51.11183701 0-92.74398379-41.27087161-92.74398378-92.02244038V546.00852669h-54.82119397c-21.02237184 0-39.72614485-12.46851072-47.66010254-31.84149731-8.03861731-19.47663929-3.71036274-40.80695069 11.2830464-55.64639119l359.58923492-356.60041558c20.04320711-19.88923733 52.70989938-19.88923733 72.8044305 0l104.13068175 103.30649373a20.60474254 20.60474254 0 0 1 0.10264689 29.16262912 20.60474254 20.60474254 0 0 1-29.16262912 0.10264576L518.16421109 131.18549863a10.51118592 10.51118592 0 0 0-14.73578666 0L143.83918837 487.73459133c-4.07063211 4.07063211-3.14278912 8.45020843-2.21595306 10.71748437 0.77286627 1.90600192 3.29776469 6.28557824 9.58434986 6.28557938h75.4309689c11.38770489 0 20.60977379 9.2230747 20.60977379 20.60977379v275.70705181c0 28.02949461 23.13567915 50.80389859 51.52443506 50.80389859h99.80343523v-178.58449749c0-50.75156878 41.63214677-92.02244039 92.74398379-92.02244039h38.90094877c51.11183701 0 92.74398379 41.27087161 92.74398379 92.02244039v178.58449749h99.80242829c28.38976285 0 51.52443506-22.77339819 51.52443507-50.80389859v-275.70604601c0-11.38770489 9.2230747-20.60977379 20.60977493-20.6097738h75.43197355c6.28557824 0 8.81047666-4.38058325 9.58334406-6.28658517 0.92784185-2.26727595 1.8546779-6.64685341-2.21494726-10.71748437L715.96671962 327.3396277a20.55845091 20.55845091 0 0 1-6.08028559-14.53049515l-0.66921358-140.09514098c0-0.1026469-0.15497557-10.09858787-10.30488747-10.09858787h-59.71702215c-11.38669909 0-20.60977379-9.2230747-20.6097738-20.60977379s9.2230747-20.60977379 20.6097738-20.6097738h59.71601636c35.39789141 0 51.4217893 29.88417251 51.52443505 51.16416682l0.6188965 131.54127986L906.76110069 458.52063819c14.99441607 14.83843357 19.32166371 36.16975075 11.28405221 55.64639119a51.35436459 51.35436459 0 0 1-47.66010255 31.84149731h-54.82220089V801.1068105c0 50.69923897-41.63214677 92.02244039-92.74398379 92.02244038z" fill="currentColor" p-id="1244">
	</path>
</svg>
<svg t="1685428756760" class="icon" viewBox="0 0 1024 1024" version="1.1" xmlns="http://www.w3.org/2000/svg" p-id="1203" width="1em" height="1em">
	<path d="M350.78342041 626.75858575a284.3816781 284.3816781 0 1 0 568.7633575 0 284.3816781 284.3816781 0 1 0-568.7633575 0z" fill="currentColor" p-id="1204">
	</path>
	<path d="M706.8123655 872.13899484H593.92592497c-10.6750304 0-19.32166293-8.64663253-19.32166293-19.321664v-186.74462934c0-26.2767072-21.6887552-47.62771093-48.30415894-47.627712h-36.46963946c-26.61540267 0-48.30415787 21.3500608-48.30415787 47.62865494v186.7436864c0 10.6750304-8.64663253 19.32166293-19.32166293 19.321664H309.2691431c-47.9173472 0-86.9474848-38.69144213-86.94748373-86.27103787V546.71331484h-51.3948704c-19.7084736 0-37.2432608-11.6892288-44.68134613-29.85140374-7.53620373-18.25934933-3.47846507-38.25651627 10.577856-52.16849066l337.1149088-334.3128896c18.79050667-18.64616 49.41553067-18.64616 68.25415253 0l97.6225152 96.8498368a19.31694613 19.31694613 0 0 1 0.0962304 27.3399648 19.31694613 19.31694613 0 0 1-27.3399648 0.09623146L514.94862684 157.8167271a9.8542368 9.8542368 0 0 0-13.81480107 0L164.01891697 492.08150044c-3.8162176 3.8162176-2.9463648 7.9220704-2.077456 10.04764266 0.72456213 1.7868768 3.0916544 5.8927296 8.985328 5.8927296h70.71653333c10.67597333 0 19.32166293 8.64663253 19.32166294 19.321664v258.47536107c0 26.2776512 21.6896992 47.62865493 48.30415786 47.62865493h93.56572054v-167.42296746c0-47.57959573 39.0301376-86.27103787 86.9474848-86.27103787h36.46963946c47.9173472 0 86.9474848 38.69144213 86.9474848 86.27103787v167.42296746h93.56477654c26.61540267 0 48.30415787-21.3500608 48.30415893-47.62865493v-258.47441813c0-10.67597333 8.64663253-19.32166293 19.32166293-19.32166294h70.71747627c5.8927296 0 8.25982187-4.1067968 8.98438507-5.8936736 0.86985173-2.1255712 1.73876053-6.23142507-2.07651307-10.04764266L700.38847857 341.7112231a19.27354773 19.27354773 0 0 1-5.7002688-13.6223392l-0.62738773-131.33919466c0-0.09623147-0.1452896-9.46742613-9.660832-9.46742614h-55.9847072c-10.6750304 0-19.32166293-8.64663253-19.321664-19.32166293s8.64663253-19.32166293 19.321664-19.321664h55.98376426c33.1855232 0 48.20792747 28.01641173 48.30415787 47.9664064l0.58021653 123.31994987L879.25820977 464.69342044c14.05726507 13.91103147 18.11405973 33.90914133 10.57879893 52.16849066a48.1447168 48.1447168 0 0 1-44.68134613 29.85140374h-51.39581333V785.86795697c0 47.53053653-39.0301376 86.27103787-86.94748374 86.27103787z" fill="#89daf4" p-id="1205">
	</path>
	<path d="M722.81886567 893.12925088H602.40666357c-11.38669909 0-20.60977379-9.2230747-20.60977493-20.60977379v-199.19427243c0-28.02848768-23.13467221-50.80289166-51.52443505-50.80289166h-38.90094877c-28.38976285 0-51.52443506 22.77339819-51.52443506 50.80389745v199.19326664c0 11.38669909-9.2230747 20.60977379-20.60977379 20.60977379H298.77276292c-51.11183701 0-92.74398379-41.27087161-92.74398378-92.02244038V546.00852669h-54.82119397c-21.02237184 0-39.72614485-12.46851072-47.66010254-31.84149731-8.03861731-19.47663929-3.71036274-40.80695069 11.2830464-55.64639119l359.58923492-356.60041558c20.04320711-19.88923733 52.70989938-19.88923733 72.8044305 0l104.13068175 103.30649373a20.60474254 20.60474254 0 0 1 0.10264689 29.16262912 20.60474254 20.60474254 0 0 1-29.16262912 0.10264576L518.16421109 131.18549863a10.51118592 10.51118592 0 0 0-14.73578666 0L143.83918837 487.73459133c-4.07063211 4.07063211-3.14278912 8.45020843-2.21595306 10.71748437 0.77286627 1.90600192 3.29776469 6.28557824 9.58434986 6.28557938h75.4309689c11.38770489 0 20.60977379 9.2230747 20.60977379 20.60977379v275.70705181c0 28.02949461 23.13567915 50.80389859 51.52443506 50.80389859h99.80343523v-178.58449749c0-50.75156878 41.63214677-92.02244039 92.74398379-92.02244039h38.90094877c51.11183701 0 92.74398379 41.27087161 92.74398379 92.02244039v178.58449749h99.80242829c28.38976285 0 51.52443506-22.77339819 51.52443507-50.80389859v-275.70604601c0-11.38770489 9.2230747-20.60977379 20.60977493-20.6097738h75.43197355c6.28557824 0 8.81047666-4.38058325 9.58334406-6.28658517 0.92784185-2.26727595 1.8546779-6.64685341-2.21494726-10.71748437L715.96671962 327.3396277a20.55845091 20.55845091 0 0 1-6.08028559-14.53049515l-0.66921358-140.09514098c0-0.1026469-0.15497557-10.09858787-10.30488747-10.09858787h-59.71702215c-11.38669909 0-20.60977379-9.2230747-20.6097738-20.60977379s9.2230747-20.60977379 20.6097738-20.6097738h59.71601636c35.39789141 0 51.4217893 29.88417251 51.52443505 51.16416682l0.6188965 131.54127986L906.76110069 458.52063819c14.99441607 14.83843357 19.32166371 36.16975075 11.28405221 55.64639119a51.35436459 51.35436459 0 0 1-47.66010255 31.84149731h-54.82220089V801.1068105c0 50.69923897-41.63214677 92.02244039-92.74398379 92.02244038z" fill="#89daf4" p-id="1206">
	</path>
</svg>
