<svg t="1686752284700" class="icon" viewBox="0 0 1024 1024" version="1.1" xmlns="http://www.w3.org/2000/svg" p-id="1929" width="200" height="200"><path d="M654.032 818.384H217.136c-49.728 0-90.096-40.32-90.096-90.096V181.424c0-49.728 40.32-90.096 90.096-90.096h436.896c49.728 0 90.096 40.32 90.096 90.096v546.912c-0.048 49.728-40.368 90.048-90.096 90.048z" fill="#f3dd7c" p-id="1930"></path><path d="M810.656 941.456H373.76c-49.728 0-90.096-40.32-90.096-90.096V304.448C283.664 254.72 323.984 214.4 373.76 214.4h436.896c49.728 0 90.096 40.32 90.096 90.096V851.36c0 49.728-40.368 90.096-90.096 90.096z" fill="#dfcd81" p-id="1931"></path><path d="M375.008 214.4c-50.448 0-91.344 40.896-91.344 91.344v512.64h369.072c50.448 0 91.344-40.896 91.344-91.344V214.4H375.008z" fill="#d5b02b" p-id="1932"></path><path d="M681.632 486.752H435.584c-21.216 0-38.4-17.184-38.4-38.4s17.184-38.4 38.4-38.4h246.096c21.216 0 38.4 17.184 38.4 38.4s-17.232 38.4-38.448 38.4zM574.448 651.728H435.584c-21.216 0-38.4-17.184-38.4-38.4s17.184-38.4 38.4-38.4h138.864c21.216 0 38.4 17.184 38.4 38.4s-17.184 38.4-38.4 38.4z" fill="#FFFFFF" p-id="1933"></path></svg>