<svg t="1686706781873" class="icon" viewBox="0 0 1024 1024" version="1.1" xmlns="http://www.w3.org/2000/svg" p-id="1415" width="1em" height="1em">
	<path d="M377.984 463.568H204.656c-42.336 0-76.8-34.464-76.8-76.8v-173.28c0-42.336 34.464-76.8 76.8-76.8h173.328c42.336 0 76.8 34.464 76.8 76.8v173.328c0 42.336-34.464 76.752-76.8 76.752z m-173.328-269.28c-10.608 0-19.2 8.592-19.2 19.2v173.328c0 10.608 8.592 19.2 19.2 19.2h173.328c10.608 0 19.2-8.592 19.2-19.2V213.488c0-10.608-8.592-19.2-19.2-19.2H204.656zM377.984 889.52H204.656c-42.336 0-76.8-34.464-76.8-76.8v-173.328c0-42.336 34.464-76.8 76.8-76.8h173.328c42.336 0 76.8 34.464 76.8 76.8v173.328c0 42.336-34.464 76.8-76.8 76.8z m-173.328-269.328c-10.608 0-19.2 8.592-19.2 19.2v173.328c0 10.608 8.592 19.2 19.2 19.2h173.328c10.608 0 19.2-8.592 19.2-19.2v-173.328c0-10.608-8.592-19.2-19.2-19.2H204.656zM808.16 889.52h-173.328c-42.336 0-76.8-34.464-76.8-76.8v-173.328c0-42.336 34.464-76.8 76.8-76.8h173.328c42.336 0 76.8 34.464 76.8 76.8v173.328c0 42.336-34.464 76.8-76.8 76.8z m-173.328-269.328c-10.608 0-19.2 8.592-19.2 19.2v173.328c0 10.608 8.592 19.2 19.2 19.2h173.328c10.608 0 19.2-8.592 19.2-19.2v-173.328c0-10.608-8.592-19.2-19.2-19.2h-173.328z" fill="currentColor" p-id="1416">
	</path>
	<path d="M873.152 329.264l-122.544 122.544c-18.768 18.768-49.152 18.768-67.872 0l-122.544-122.544c-18.768-18.768-18.768-49.152 0-67.872l122.544-122.544c18.768-18.768 49.152-18.768 67.872 0l122.544 122.544c18.768 18.768 18.768 49.152 0 67.872z" fill="#ffa115" p-id="1417">
	</path>
	<path d="M716.672 494.624c-19.68 0-39.312-7.488-54.288-22.464L539.84 349.616c-29.952-29.952-29.952-78.672 0-108.624l122.544-122.544c29.952-29.952 78.672-29.952 108.624 0l122.544 122.544c29.952 29.952 29.952 78.672 0 108.624L771.008 472.16a76.608 76.608 0 0 1-54.336 22.464z m0-341.04c-4.896 0-9.84 1.872-13.584 5.616l-122.544 122.544a19.2384 19.2384 0 0 0 0 27.168l122.544 122.544a19.2384 19.2384 0 0 0 27.168 0L852.8 308.912a19.2384 19.2384 0 0 0 0-27.168L730.256 159.2c-3.744-3.744-8.64-5.616-13.584-5.616z" fill="currentColor" p-id="1418">
	</path>
</svg>
