<svg t="1686751340298" class="icon" viewBox="0 0 1024 1024" version="1.1" xmlns="http://www.w3.org/2000/svg" p-id="1797" width="200" height="200"><path d="M132.64850489 143.25077333m42.75859911 0l235.11404089 0q42.75859911 0 42.75859911 42.75859912l0 235.11404088q0 42.75859911-42.75859911 42.75859912l-235.11404089 0q-42.75859911 0-42.75859911-42.75859912l0-235.11404088q0-42.75859911 42.75859911-42.75859912Z" fill="#75d6ef" p-id="1798"></path><path d="M570.83676445 143.25077333m42.7585991 0l235.1140409 0q42.75859911 0 42.7585991 42.75859912l0 235.11404088q0 42.75859911-42.7585991 42.75859912l-235.1140409 0q-42.75859911 0-42.7585991-42.75859912l0-235.11404088q0-42.75859911 42.7585991-42.75859912Z" fill="#82e2fb" p-id="1799"></path><path d="M132.64850489 560.11798755m42.75859911 0l235.11404089 0q42.75859911 0 42.75859911 42.75859912l0 235.11404088q0 42.75859911-42.75859911 42.75859912l-235.11404089 0q-42.75859911 0-42.75859911-42.75859912l0-235.11404088q0-42.75859911 42.75859911-42.75859912Z" fill="#bde9f4" p-id="1800"></path><path d="M570.83676445 560.11798755m42.7585991 0l235.1140409 0q42.75859911 0 42.7585991 42.75859912l0 235.11404088q0 42.75859911-42.7585991 42.75859912l-235.1140409 0q-42.75859911 0-42.7585991-42.75859912l0-235.11404088q0-42.75859911 42.7585991-42.75859912Z" fill="#87d4e8" p-id="1801"></path></svg>