<svg t="1686751794783" class="icon" viewBox="0 0 1024 1024" version="1.1" xmlns="http://www.w3.org/2000/svg" p-id="1863" width="200" height="200"><path d="M426.624 842.666667h170.666667c0 42.666667-30.592 85.333333-85.333334 85.333333s-85.333333-42.666667-85.333333-85.333333z m436.992-180.266667l-47.189333-78.762667a192 192 0 0 1-27.306667-98.645333V372.906667c0-152.704-124.330667-276.906667-277.12-276.906667S234.88 220.202667 234.88 372.906667v112.085333a192 192 0 0 1-27.306667 98.645333l-47.189333 78.762667a75.818667 75.818667 0 0 0-0.938667 77.312c13.824 24.405333 38.826667 38.954667 66.858667 38.954667h571.477333c28.074667 0 53.077333-14.592 66.901334-38.954667a76.16 76.16 0 0 0-1.066667-77.312z" fill="#73D13D" p-id="1864"></path><path d="M527.274667 842.624l-68.266667 68.266667c-21.12-16.384-32.426667-42.282667-32.426667-68.224l100.693334-0.042667z m249.6-551.253333c7.936 25.770667 12.245333 53.162667 12.245333 81.536v112.085333a192 192 0 0 0 16.938667 78.848l-214.784 214.784H289.536z" fill="#81D550" p-id="1865"></path><path d="M639.445333 127.061333a278.357333 278.357333 0 0 1 137.386667 164.309334L289.621333 778.666667l-63.274666 0.042666a75.861333 75.861333 0 0 1-63.146667-33.066666l-3.712-5.888a75.818667 75.818667 0 0 1 0.938667-77.312l47.189333-78.762667c8.277333-13.824 14.762667-28.586667 19.328-43.946667z" fill="#8FDA63" p-id="1866"></path><path d="M512 96a275.626667 275.626667 0 0 1 127.488 31.104l-412.586667 412.586667c5.248-17.706667 7.978667-36.096 7.978667-54.698667V372.906667c0-152.704 124.330667-276.906667 277.12-276.906667z" fill="#ABE38A" p-id="1867"></path></svg>