<svg t="1687424133928" class="icon" viewBox="0 0 1024 1024" version="1.1" xmlns="http://www.w3.org/2000/svg" p-id="2062" width="200" height="200"><path d="M92 879.50000001V144.49999999c0-28.996875 23.503125-52.50000001 52.50000001-52.49999999h735c28.996875 0 52.50000001 23.503125 52.49999999 52.50000001v735c0 28.996875-23.503125 52.50000001-52.49999999 52.49999999H144.49999999c-28.996875 0-52.50000001-23.503125-52.49999999-52.49999999z" fill="#b09af7" p-id="2063"></path><path d="M932 275.75H92V144.49999999c0-28.996875 23.503125-52.50000001 52.50000001-52.49999999h735c28.996875 0 52.50000001 23.503125 52.49999999 52.50000001v131.24999999z" fill="#4c1edc" p-id="2064"></path><path d="M197 183.875m-26.25 0a26.25 26.25 0 1 0 52.5 0 26.25 26.25 0 1 0-52.5 0Z" fill="#FF4343" p-id="2065"></path><path d="M275.75 183.875m-26.25000001 0a26.25 26.25 0 1 0 52.50000001 0 26.25 26.25 0 1 0-52.50000001 0Z" fill="#FFD600" p-id="2066"></path><path d="M354.49999999 183.875m-26.24999999 0a26.25 26.25 0 1 0 52.5 0 26.25 26.25 0 1 0-52.5 0Z" fill="#65FF40" p-id="2067"></path><path d="M577.625 455.121875H288.875c-21.75 0-39.375 17.625-39.37499999 39.375s17.625 39.375 39.37499999 39.375h288.75c21.75 0 39.375-17.625 39.375-39.375 0-21.740625-17.625-39.375-39.375-39.375zM735.125 673.878125H288.875c-21.75 0-39.375 17.625-39.37499999 39.375s17.625 39.375 39.37499999 39.375h446.25c21.75 0 39.375-17.625 39.37499999-39.375s-17.625-39.375-39.37499999-39.375z" fill="#4c1edc" p-id="2068"></path></svg>