<svg t="1686751167541" class="icon" viewBox="0 0 1024 1024" version="1.1" xmlns="http://www.w3.org/2000/svg" p-id="1758" width="200" height="200"><path d="M539.26749841 618.98082416a109.59641373 109.59641373 0 0 1 17.91187894-54.95000235 246.51603233 246.51603233 0 0 0 43.10994699-87.43425787 117.48978397 117.48978397 0 0 0 42.19917325-78.6301139c2.73232041-46.75304032-8.80414399-49.18176975-8.80414398-49.18177057 17.00110602-51.00331723 22.16215585-242.87293899-101.09586072-220.71078313-19.42983545-40.68121756-148.75967478-72.25469934-209.17431876 35.52016772a227.69337964 227.69337964 0 0 0-17.60828796 187.0121629c0 4.25027609-8.19696203-4.25027609-10.92928244 23.07292878a138.74116608 138.74116608 0 0 0 22.76933863 82.576799 51.61049918 51.61049918 0 0 0 20.9477903 15.48315033 223.13951257 223.13951257 0 0 0 44.62790269 91.07735201 51.00331723 51.00331723 0 0 1-26.71602293 54.34281959C239.31941943 641.14297918 132.15173514 705.80789926 132.15173514 775.93746014v54.34282041c13.66160284 98.05994934 279.91106158 91.07735202 459.6370362 87.1306669a16.69751422 16.69751422 0 0 0 5.16104983-21.85856488 96.54199283 96.54199283 0 0 0-45.84226658-34.91298496c0-1.51795568-5.46464081-2.42872943-6.07182357-3.94668512a80.45166055 80.45166055 0 0 1-6.98259733-48.5745878s0.60718195-186.40498013 1.21436472-189.13730053z" fill="#A6C5F6" p-id="1759"></path><path d="M842.85867154 566.76314221h-200.06658297a47.36022308 47.36022308 0 0 0-48.57458781 45.5386756v209.17431876a57.07514081 57.07514081 0 0 0 12.14364717 27.32320569l115.3646455 78.93370486a32.7878465 32.7878465 0 0 0 21.25138211 6.07182358 27.01961472 27.01961472 0 0 0 20.94779113-9.10773579l112.32873414-75.89779265a30.35911706 30.35911706 0 0 0 15.17955854-24.28729431V615.33773001a43.41353797 43.41353797 0 0 0-48.57458781-48.5745878z m2.12513846 119.61492243L802.17745481 727.66646414l10.62569064 57.37873178a9.71491773 9.71491773 0 0 1-3.94668512 10.0185087 9.41132676 9.41132676 0 0 1-6.07182358 2.12513764 12.7508291 12.7508291 0 0 1-4.85745887 0l-53.73563763-26.41243196-54.03922861 26.41243196a12.7508291 12.7508291 0 0 1-4.55386788 0 9.41132676 9.41132676 0 0 1-6.37541456-2.12513764 10.32209966 10.32209966 0 0 1-3.94668512-10.0185087l11.23287342-57.37873178-42.80635519-39.77044381a10.01850869 10.01850869 0 0 1-2.73232123-10.62569147 10.62569146 10.62569146 0 0 1 8.500553-6.9825965l59.50387025-11.84005618 25.80525-52.21768195a10.62569146 10.62569146 0 0 1 18.82265268 0l26.41243194 53.43204666 59.20027844 10.32209967a10.62569146 10.62569146 0 0 1 8.19696204 6.98259732 10.32209966 10.32209966 0 0 1-2.42872943 9.41132676z" fill="#4E8CEE" p-id="1760"></path></svg>