<svg t="1686706158115" class="icon" viewBox="0 0 1024 1024" version="1.1" xmlns="http://www.w3.org/2000/svg" p-id="1278" width="1em" height="1em">
	<path d="M323.33333333 301.19c0-99.3 80.76-180 180-180s180 80.7 180 180-80.76 180-180 180-180-80.73-180-180" fill="#D9FAFF" p-id="1279">
	</path>
	<path d="M688.91333333 610.1c-31.14-29.46-68.88-49.8-112.14-60.42a30.06 30.06 0 0 0-36.27 22.02 30.03 30.03 0 0 0 22.02 36.27c20.19 4.92 38.49 12.9 55.26 23.19h80.49a29.82 29.82 0 0 0-9.36-21.06" fill="currentColor" p-id="1280">
	</path>
	<path d="M383.33333333 865.04c-132.42-14.64-171.57-51.69-179.91-61.71 3.51-146.43 106.38-292.14 299.91-292.14 112.83 0 194.58 49.68 244.08 120h69.09c-39.36-71.55-102.93-131.25-189.81-160.44A209.7 209.7 0 0 0 713.33333333 301.19c0-115.77-94.23-210-210-210s-210 94.23-210 210a209.7 209.7 0 0 0 86.64 169.56C225.53333333 522.65 143.33333333 670.37 143.33333333 811.13c0 3.51 0.63 6.9 1.83 10.26 5.64 15.6 42.3 83.55 238.17 103.83v-60.18zM353.33333333 301.19c0-82.74 67.29-150 150-150s150 67.26 150 150-67.29 150-150 150-150-67.29-150-150M804.95333333 858.59c55.83-56.07 58.38-173.4 58.38-173.4s-117.9 1.35-173.76 57.42c-50.79 51.09-54.27 104.94-33.06 135.63l119.67-106.71-106.35 120.6c30.03 22.17 83.49 18.36 135.12-33.54" fill="currentColor" p-id="1281">
	</path>
	<path d="M659.39333333 882.65c-1.11-1.35-1.86-3-2.88-4.38L623.33333333 907.79l17.31 17.4 29.19-33.06c-0.9-0.63-1.89-1.11-2.76-1.77l-7.68-7.71z" fill="currentColor" p-id="1282">
	</path>
</svg>
