<svg t="1686751502334" class="icon" viewBox="0 0 1024 1024" version="1.1" xmlns="http://www.w3.org/2000/svg" p-id="1830" width="200" height="200"><path d="M782 377a285 285 0 1 1-570 0 285 285 0 0 1 570 0z" fill="#FFC2C2" p-id="1831"></path><path d="M392 637.73L617.09 122C717.5 167.3 782 268.19 782 379.88 782 535.7 657.8 662 504.56 662A273.6 273.6 0 0 1 392 637.73z" fill="#FFD9D9" p-id="1832"></path><path d="M902 812c0 66.3-174.6 120-390 120S122 878.3 122 812s174.6-120 390-120 390 53.7 390 120z" fill="#FF8686" p-id="1833"></path></svg>