<svg t="1686705625407" class="icon" viewBox="0 0 1024 1024" version="1.1" xmlns="http://www.w3.org/2000/svg" p-id="1278" width="1em" height="1em">
	<path d="M332 301.16c0-99.27 80.73-179.97 180-179.97s180 80.7 180 179.97c0 99.33-80.73 180.03-180 180.03s-180-80.73-180-180.03M784.76 877.46h-185.52c-39.54 0-72.96-30.36-72.96-66.27s33.39-66.27 72.96-66.27h185.52c39.54 0 72.96 30.36 72.96 66.27s-33.42 66.27-72.96 66.27" fill="#7cdb9b" p-id="1279">
	</path>
	<path d="M212.09 803.33c3.51-146.46 106.38-292.14 299.91-292.14 112.83 0 194.58 49.68 244.08 120h19.89c18.66 0 36.69 2.79 53.64 7.74-38.97-75-104.25-137.94-194.25-168.18A209.7 209.7 0 0 0 722 301.16c0-115.74-94.23-209.97-210-209.97s-210 94.2-210 209.97a209.64 209.64 0 0 0 86.64 169.56C234.2 522.68 152 670.4 152 811.1c0 3.51 0.63 6.96 1.83 10.29 6.33 17.43 51.06 100.68 315.18 109.02a177.78 177.78 0 0 1-37.08-61.74c-165.06-10.89-210.72-54.39-219.84-65.34M362 301.16c0-82.71 67.29-149.97 150-149.97s150 67.26 150 149.97c0 82.77-67.29 150.03-150 150.03s-150-67.29-150-150.03" fill="currentColor" p-id="1280">
	</path>
	<path d="M697.58 610.07c-31.14-29.43-68.88-49.77-112.14-60.42a30 30 0 1 0-14.25 58.32c20.19 4.92 38.49 12.9 55.26 23.19h80.49a30 30 0 0 0-9.36-21.09M775.97 691.19h-167.94c-69.33 0-126.03 54.09-126.03 120 0 65.94 56.73 120 126.03 120h167.94c69.33 0 126.03-54.06 126.03-120s-56.73-120-126.03-120m0 180h-167.94c-35.79 0-66.03-27.48-66.03-60s30.24-60 66.03-60h167.94c35.79 0 66.03 27.48 66.03 60s-30.24 60-66.03 60" fill="currentColor" p-id="1281">
	</path>
</svg>
