<svg t="1690433708951" class="icon" viewBox="0 0 1024 1024" version="1.1" xmlns="http://www.w3.org/2000/svg" p-id="3263" width="1em" height="1em">
	<path d="M512 75.32a40.00000031 40.00000031 0 0 1 4.68 79.75999969L512 155.31999969H195.32a40.00000031 40.00000031 0 0 0-39.72 35.36000062l-0.28000031 4.63999969v461.64l169.32-155.16a83.32000031 83.32000031 0 0 1 105.08000062-6.16000031l5.47999969 4.32 138.48 118.72000031 93.48-93.40000031a83.32000031 83.32000031 0 0 1 103.24000031-11.59999969l5.67999938 3.88000031 98.28 73.71999938V512a40.00000031 40.00000031 0 0 1 79.76000062-4.68l0.27999938 4.68v321.28000031a120 120 0 0 1-112.95999938 119.79999938l-7.04000062 0.20000062H195.32a120 120 0 0 1-119.80000031-112.96000031l-0.19999969-7.03999969V195.32a120 120 0 0 1 112.96000031-119.80000031l7.03999969-0.19999969H512zM380.12 560l-1.39999969 0.79999969-223.40000062 204.68000062v67.8a40.00000031 40.00000031 0 0 0 35.36000062 39.72l4.63999969 0.27999938H834.39999969a40.00000031 40.00000031 0 0 0 39.72-35.35999969l0.28000031-4.63999969v-142.32l-3.07999969-1.96000031-143.24000062-107.44000031a3.31999969 3.31999969 0 0 0-3-0.51999938l-1.35999938 0.79999969-89.12000062 89.04 74.80000031 64.08a40.00000031 40.00000031 0 0 1-48.07999969 63.76000031l-4.00000031-3-274.2-235.00000031a3.31999969 3.31999969 0 0 0-3-0.72zM786.99999969 75.32a40.00000031 40.00000031 0 0 1 39.72 35.35999969l0.28000031 4.64000062v163.39999969l40.03999969-40.00000031a40.00000031 40.00000031 0 0 1 52.8-3.31999969l3.76000031 3.31999969a40.00000031 40.00000031 0 0 1 3.36 52.8l-3.36 3.76000031-108.31999969 108.31999969a40.24000031 40.24000031 0 0 1-3.6 3.20000062l3.6-3.20000062a40.27999969 40.27999969 0 0 1-28.28000062 11.72000062h-1.32l-2.07999938-0.12 3.39999938 0.12a40.32 40.32 0 0 1-24.51999938-8.4l-0.36-0.24a40.24000031 40.24000031 0 0 1-3.40000031-3.08000062L650.40000031 295.28a40.00000031 40.00000031 0 0 1 52.8-59.88l3.75999938 3.31999969 40.00000031 40.00000031 0.04000031-163.39999969a40.00000031 40.00000031 0 0 1 39.99999938-40.00000031z" fill="currentColor" p-id="3264">
	</path>
</svg>
