<svg t="1690433732469" class="icon" viewBox="0 0 1024 1024" version="1.1" xmlns="http://www.w3.org/2000/svg" p-id="3571" width="1em" height="1em">
	<path d="M962 629.1125v290.7a42.1875 42.1875 0 0 1-42.1875 42.1875H104.1875a42.1875 42.1875 0 0 1-42.1875-42.1875v-290.7a42.1875 42.1875 0 0 1 84.375 0V877.625h731.25v-248.5125a42.1875 42.1875 0 0 1 84.375 0z m-479.1375 128.30625a42.13125 42.13125 0 0 0 59.68125 0l263.5875-263.53125a42.1875 42.1875 0 1 0-59.7375-59.68125l-191.41875 191.475V104.1875a42.24375 42.24375 0 0 0-84.43125 0v521.60625L279.0125 434.2625a42.1875 42.1875 0 1 0-59.68125 59.68125l263.53125 263.475z" fill="currentColor" p-id="3572">
	</path>
</svg>
