<svg t="1690437397278" class="icon" viewBox="0 0 1024 1024" version="1.1" xmlns="http://www.w3.org/2000/svg" p-id="33563" width="1em" height="1em">
 <g>
  <path id="svg_1" p-id="3661"  d="m509.23,109c54.03,0 106.41,10.56 155.67,31.4c47.62,20.14 90.4,48.99 127.16,85.75c36.76,36.76 65.61,79.54 85.75,127.16c20.84,49.26 31.4,101.63 31.4,155.67s-10.56,106.41 -31.4,155.67c-20.14,47.62 -48.99,90.4 -85.75,127.16c-36.76,36.76 -79.54,65.61 -127.16,85.75c-49.26,20.84 -101.63,31.4 -155.67,31.4s-106.41,-10.56 -155.67,-31.4c-47.62,-20.14 -90.4,-48.99 -127.16,-85.75c-36.76,-36.76 -65.61,-79.54 -85.75,-127.16c-20.84,-49.26 -31.4,-101.63 -31.4,-155.67s10.56,-106.41 31.4,-155.67c20.14,-47.62 48.99,-90.4 85.75,-127.16c36.76,-36.76 79.54,-65.61 127.16,-85.75c49.26,-20.84 101.63,-31.4 155.67,-31.4m0,-80c-257.53,0 -467.69,202.82 -479.46,457.45c-13.29,287.59 214.41,515.29 502,502c254.62,-11.77 457.45,-221.93 457.45,-479.46c-0.01,-265.09 -214.91,-479.99 -479.99,-479.99z"/>
  <path stroke="null" id="svg_2" p-id="3661"  d="m515.22547,268.33345c33.31858,0 65.61965,6.51202 95.99672,19.36338c29.36573,12.4197 55.7468,30.21057 78.41551,52.87929c22.66872,22.66872 40.45959,49.04978 52.87929,78.41551c12.85136,30.37707 19.36338,62.67198 19.36338,95.99672s-6.51202,65.61965 -19.36338,95.99672c-12.4197,29.36573 -30.21057,55.7468 -52.87929,78.41551c-22.66872,22.66872 -49.04978,40.45959 -78.41551,52.87929c-30.37707,12.85136 -62.67198,19.36338 -95.99672,19.36338s-65.61965,-6.51202 -95.99672,-19.36338c-29.36573,-12.4197 -55.7468,-30.21057 -78.41551,-52.87929c-22.66872,-22.66872 -40.45959,-49.04978 -52.87929,-78.41551c-12.85136,-30.37707 -19.36338,-62.67198 -19.36338,-95.99672s6.51202,-65.61965 19.36338,-95.99672c12.4197,-29.36573 30.21057,-55.7468 52.87929,-78.41551c22.66872,-22.66872 49.04978,-40.45959 78.41551,-52.87929c30.37707,-12.85136 62.67198,-19.36338 95.99672,-19.36338m0,-49.33345c-158.81053,0 -288.4095,125.07262 -295.66768,282.09482c-8.19552,177.34758 132.21981,317.7629 309.56738,309.56738c157.01603,-7.25818 282.09482,-136.85715 282.09482,-295.66768c-0.00617,-163.47255 -132.52814,-295.99452 -295.99452,-295.99452z"/>
 </g>
</svg>