<svg t="1690433732463" class="icon" viewBox="0 0 1024 1024" version="1.1" xmlns="http://www.w3.org/2000/svg" p-id="35731" width="1em" height="1em">
	<g>
		<title>
			Layer 1
		</title>
		<g id="svg_29">
			<g stroke="null" id="svg_12">
				<path stroke="null" id="svg_13" p-id="16918" d="m512.42327,117.45108l394.87559,394.47217l-394.87559,394.47216l-394.8756,-394.47216l394.8756,-394.47217m0,-94.45108l-489.42328,488.92325l489.42328,488.92326l489.42328,-488.92326l-489.42328,-488.92325z" />
				<path stroke="null" id="svg_14" d="m374.71824,325.73734l321.5869,321.12379l-43.8344,43.80796l-321.58689,-321.12379l43.83439,-43.80796z" opacity="undefined" />
				<path stroke="null" id="svg_15" d="m693.01267,376.02716l-321.51956,321.19107l-43.84358,-43.79879l321.51956,-321.19107l43.84358,43.79879z" opacity="undefined" />
			</g>
			<g stroke="null" id="svg_28">
				<path stroke="null" id="svg_25" p-id="16918" d="m511.42329,114.0362l397.29603,396.89014l-397.29603,396.89013l-397.29604,-396.89013l397.29604,-396.89014m0,-95.03003l-492.42326,491.92016l492.42326,491.92017l492.42326,-491.92017l-492.42326,-491.92016z" />
				<path stroke="null" id="svg_26" d="m372.87418,323.59918l323.55811,323.09216l-44.10309,44.07649l-323.5581,-323.09216l44.10308,-44.07649z" opacity="undefined" />
				<path stroke="null" id="svg_27" d="m693.11963,374.19725l-323.49035,323.15985l-44.11232,-44.06726l323.49035,-323.15985l44.11232,44.06726z" opacity="undefined" />
			</g>
		</g>
	</g>
</svg>
