<svg t="1690335284300" class="icon" viewBox="0 0 1024 1024" version="1.1" xmlns="http://www.w3.org/2000/svg" p-id="3886" width="1em" height="1em">
	<path d="M329.9555552 853.33333333v-22.7555552h-91.02222187c-25.03111147 0-45.51111147-20.48-45.51111146-45.51111146v-91.02222187H102.4v136.53333333c0 50.06222187 40.96 91.02222187 91.02222187 91.02222187h136.53333333v-68.26666667zM170.66666667 329.9555552h22.7555552v-91.02222187c0-25.03111147 20.48-45.51111147 45.51111146-45.51111146h91.02222187V102.4h-136.53333333c-50.06222187 0-91.02222187 40.96-91.02222187 91.02222187v136.53333333h68.26666667zM853.33333333 694.0444448h-22.7555552v91.02222187c0 25.03111147-20.48 45.51111147-45.51111146 45.51111146h-91.02222187v91.02222187h136.53333333c50.06222187 0 91.02222187-40.96 91.02222187-91.02222187v-136.53333333h-68.26666667zM830.57777813 102.4h-136.53333333v91.02222187h91.02222187c25.03111147 0 45.51111147 20.48 45.51111146 45.51111146v91.02222187h91.02222187v-136.53333333c0-50.06222187-40.96-91.02222187-91.02222187-91.02222187zM284.4444448 329.9555552v364.0888896c0 25.03111147 20.48 45.51111147 45.5111104 45.5111104h364.0888896c25.03111147 0 45.51111147-20.48 45.5111104-45.5111104V329.9555552c0-25.03111147-20.48-45.51111147-45.5111104-45.5111104H329.9555552c-25.03111147 0-45.51111147 20.48-45.5111104 45.5111104z m341.33333333 318.57777813H398.22222187c-13.65333333 0-22.7555552-9.10222187-22.7555552-22.7555552V398.22222187c0-13.65333333 9.10222187-22.7555552 22.7555552-22.7555552h227.55555626c13.65333333 0 22.7555552 9.10222187 22.7555552 22.7555552v227.55555626c0 13.65333333-9.10222187 22.7555552-22.7555552 22.7555552z" fill="currentColor" p-id="3887">
	</path>
</svg>
