<svg t="1690437331002" class="icon" viewBox="0 0 1024 1024" version="1.1" xmlns="http://www.w3.org/2000/svg" p-id="3202" width="1em" height="1em">
	<path d="M859.42647073 90.125h-173.71323576v74.44852927h148.89705934a24.81617642 24.81617642 0 0 1 24.81617642 24.8161764v148.89705936h74.44852927V164.57352927a74.44852927 74.44852927 0 0 0-74.44852927-74.44852927zM387.91911789 90.125h248.16176422v74.44852927H387.91911789zM859.42647073 387.91911789h74.44852927v248.16176422h-74.44852927zM387.91911789 859.42647073h248.16176422v74.44852927H387.91911789zM90.125 387.91911789h74.44852927v248.16176422H90.125zM164.57352927 834.61029431v-148.89705936H90.125v173.71323578a74.44852927 74.44852927 0 0 0 74.44852927 74.44852927h173.71323576v-74.44852927H189.38970569a24.81617642 24.81617642 0 0 1-24.81617642-24.81617642zM859.42647073 834.61029431a24.81617642 24.81617642 0 0 1-24.8161764 24.81617642h-148.89705936v74.44852927h173.71323576a74.44852927 74.44852927 0 0 0 74.44852927-74.44852927v-173.71323578h-74.44852927zM90.125 164.57352927v173.71323576h74.44852927V189.38970569a24.81617642 24.81617642 0 0 1 24.8161764-24.81617642h148.89705936V90.125H164.57352927a74.44852927 74.44852927 0 0 0-74.44852927 74.44852927z" p-id="3203">
	</path>
</svg>
