<svg t="1690433722100" class="icon" viewBox="0 0 1024 1024" version="1.1" xmlns="http://www.w3.org/2000/svg" p-id="3417" width="1em" height="1em">
	<path d="M962 629.1125v290.7a42.1875 42.1875 0 0 1-42.1875 42.1875H104.1875a42.1875 42.1875 0 0 1-42.1875-42.1875v-290.7a42.1875 42.1875 0 0 1 84.375 0V877.625h731.25v-248.5125a42.1875 42.1875 0 0 1 84.375 0zM279.0125 397.53125L470.4875 206v521.60625a42.1875 42.1875 0 0 0 84.375 0V206.05625l191.475 191.53125a42.1875 42.1875 0 1 0 59.68125-59.68125L542.54375 74.375a42.13125 42.13125 0 0 0-59.68125 0L219.3875 337.85a42.1875 42.1875 0 0 0 59.625 59.68125z" fill="currentColor" p-id="3418">
	</path>
</svg>
