<svg t="1690335260371" class="icon" viewBox="0 0 1024 1024" version="1.1" xmlns="http://www.w3.org/2000/svg" p-id="3575" width="1em" height="1em">
	<path d="M439.40977778 138.80888889c80.32711111 0 155.76177778 31.28888889 212.53688889 88.064s88.064 132.20977778 88.064 212.53688889S708.72177778 595.17155555 651.94666667 651.94666667s-132.20977778 88.064-212.53688889 88.064-155.76177778-31.28888889-212.53688889-88.064S138.80888889 519.62311111 138.80888889 439.40977778c0-80.32711111 31.28888889-155.76177778 88.064-212.53688889S359.08266667 138.80888889 439.40977778 138.80888889m0-100.12444444c-102.51377778 0-205.14133333 39.13955555-283.30666667 117.41866666-156.44444445 156.44444445-156.44444445 410.16888889 0 566.72711111 78.27911111 78.27911111 180.79288889 117.41866667 283.30666667 117.41866667s205.14133333-39.13955555 283.30666667-117.41866667c156.44444445-156.44444445 156.44444445-410.16888889 0-566.72711111C644.43733333 77.824 541.92355555 38.68444445 439.40977778 38.68444445z" fill="currentColor" p-id="3576">
	</path>
	<path d="M722.71644445 672.65422222c-12.85688889 0-25.6 4.89244445-35.3848889 14.67733333-19.56977778 19.56977778-19.56977778 51.31377778 0 70.88355556l212.5368889 212.53688889c9.78488889 9.78488889 22.64177778 14.67733333 35.38488888 14.67733333 12.85688889 0 25.6-4.89244445 35.38488889-14.67733333 19.56977778-19.56977778 19.56977778-51.31377778 0-70.88355555L758.10133333 687.33155555c-9.78488889-9.78488889-22.528-14.67733333-35.38488888-14.67733333zM574.91911111 404.02488889c-9.10222222-9.10222222-21.61777778-14.67733333-35.38488889-14.67733334h-200.24888889c-27.648 0-50.176 22.41422222-50.176 50.176 0 13.88088889 5.57511111 26.39644445 14.67733334 35.3848889 9.10222222 9.10222222 21.61777778 14.67733333 35.38488888 14.67733333h200.36266667c27.648 0 50.176-22.41422222 50.176-50.176 0-13.76711111-5.68888889-26.39644445-14.79111111-35.38488889z" fill="currentColor" p-id="3577">
	</path>
</svg>
