<svg t="1692174134029" class="icon" viewBox="0 0 1024 1024" version="1.1" xmlns="http://www.w3.org/2000/svg" p-id="3354" width="1em" height="1em">
	<path d="M920.72504889 967.64700445H512c-61.49347555 0-121.16992-12.05248-177.37159111-35.82407112-54.26289778-22.95125333-102.98823111-55.79889778-144.81976889-97.63157333-41.83267555-41.83267555-74.68032-90.55573333-97.63157333-144.81976889-23.77045333-56.20167111-35.82407111-115.87811555-35.82407112-177.37159111s12.05361778-121.16992 35.82407112-177.37159111c22.95125333-54.26289778 55.79889778-102.98709333 97.63157333-144.81976889s90.55687111-74.68032 144.81976889-97.63157333c56.20167111-23.77159111 115.87811555-35.82407111 177.37159111-35.82407112s121.16992 12.05361778 177.37159111 35.82407112c54.26289778 22.95125333 102.98823111 55.79889778 144.81976889 97.63157333s74.68032 90.55687111 97.63157333 144.81976889c23.77159111 56.20167111 35.82407111 115.87811555 35.82407112 177.37159111 0 62.15338667-12.30392889 122.42033778-36.57159112 179.12718222-17.85059555 41.71548445-41.54595555 80.10410667-70.66851555 114.56739556l90.08696889 90.08583111a42.10005333 42.10005333 0 0 1-29.76881778 71.86659556zM512 140.54855111c-204.81934222 0-371.45144889 166.63210667-371.45144889 371.45144889S307.18065778 883.45144889 512 883.45144889h307.09191111l-46.85937778-46.85824a42.10005333 42.10005333 0 0 1 0.24576-59.77884444C844.03996445 706.41664 883.45031111 612.37020445 883.45031111 512c0.00113778-204.81934222-166.63096889-371.45144889-371.45031111-371.45144889z" p-id="3355">
	</path>
	<path d="M485.23377778 742.656a42.10119111 42.10119111 0 0 1-41.09198223-51.27623111l37.57283556-168.19427556c-15.36796445-1.09795555-29.56401778-10.62229333-35.89233778-25.81617778-8.93952-21.46304 1.21173333-46.10844445 22.67477334-55.04796444l54.63381333-22.75555556a42.09777778 42.09777778 0 0 1 57.27232 48.03925334l-37.63996445 168.49351111c13.97532445 1.95470222 26.64675555 10.88967111 32.74410667 24.75576889 9.36049778 21.28327111-0.30606222 46.12437333-21.58933333 55.48373333l-51.74499556 22.75555556a42.08184889 42.08184889 0 0 1-16.93923555 3.56238222zM495.19957333 379.20540445c-17.61052445 0-34.02524445-11.13656889-39.91893333-28.75733334-7.3728-22.04899555 4.52380445-45.90250667 26.57166222-53.27644444l40.82574223-13.65333334c22.04558222-7.37393778 45.90250667 4.52266667 53.27644444 26.57166222 7.3728 22.04899555-4.52380445 45.90250667-26.57166222 53.27644445l-40.82574222 13.65333333a42.04316445 42.04316445 0 0 1-13.35751112 2.18567112z" p-id="3356">
	</path>
</svg>
