<svg t="1692174994204" class="icon" viewBox="0 0 1024 1024" version="1.1" xmlns="http://www.w3.org/2000/svg" p-id="3534" width="1em" height="1em">
	<path d="M605.1640625 650.77929688c-78.75 68.02734375-54.93164063-51.328125-51.328125-68.02734376 3.60351563-16.69921875 54.84375-119.35546875 17.31445313-136.58203124-37.6171875-17.31445313-153.36914063 68.02734375-153.36914063 68.02734374s-19.07226563 13.7109375-17.31445313 17.31445313c12.56835938 22.06054688 68.02734375-17.31445313 68.02734376-17.31445313s19.07226563-15.46875 17.31445312 0c-16.69921875 67.23632813-28.125 135.61523438-34.01367187 204.60937501 8.34960938 45.3515625 79.98046875 26.27929688 136.0546875-34.01367188 56.07421875-60.20507813 17.31445313-34.01367188 17.31445312-34.01367188z m0-1e-8" p-id="3535">
	</path>
	<path d="M559.4609375 394.2265625c21.26953125 1.14257813 41.57226563-9.140625 53.17382813-26.98242188 11.6015625-17.84179688 12.91992188-40.51757813 3.25195312-59.58984374-9.66796875-18.984375-28.65234375-31.46484375-50.00976563-32.60742188-21.26953125-1.14257813-41.57226563 9.140625-53.17382812 26.98242188-11.6015625 17.84179688-12.91992188 40.51757813-3.25195313 59.58984374 9.66796875 18.984375 28.74023438 31.46484375 50.00976563 32.60742188z m0 0" p-id="3536">
	</path>
	<path d="M839.65625 812.49804688c76.72851563-82.00195313 119.44335938-190.1953125 119.35546875-302.51953126C959.01171875 262.83007812 758.70898438 62.52734375 511.56054687 62.52734375 264.41210937 62.52734375 64.109375 262.91796875 64.109375 509.97851562c0 247.1484375 200.30273438 447.45117188 447.45117188 447.45117188h417.65624999c12.56835938 0.08789063 23.81835938-7.64648438 28.21289063-19.3359375 4.39453125-11.77734375 0.96679688-24.9609375-8.52539062-33.13476563L839.65625 812.49804688zM511.56054687 897.83984375C297.37109375 897.83984375 123.69921875 724.16796875 123.69921875 509.97851562 123.69921875 295.7890625 297.28320312 122.20507812 511.47265625 122.20507812S899.24609375 295.7890625 899.24609375 509.97851562c0.3515625 107.31445313-44.20898438 209.8828125-122.87109375 282.83203126-6.24023438 6.15234375-9.40429688 14.765625-8.70117188 23.46679687 0.703125 8.70117188 5.18554688 16.69921875 12.30468751 21.88476562l71.01562499 59.67773438H511.56054687z m1e-8 0" p-id="3537">
	</path>
</svg>
