<?xml version="1.0" standalone="no"?><!DOCTYPE svg PUBLIC "-//W3C//DTD SVG 1.1//EN" "http://www.w3.org/Graphics/SVG/1.1/DTD/svg11.dtd"><svg t="1687916896757" class="icon" viewBox="0 0 1024 1024" version="1.1" xmlns="http://www.w3.org/2000/svg" p-id="4704" xmlns:xlink="http://www.w3.org/1999/xlink" width="130" height="130"><path d="M178.71875025 402.90576146l36.32080028-127.28759714 7.31689453-25.6420901q2.24121068-7.77832006 27.29003906-26.36718725A39.55078125 39.55078125 0 0 1 287.48339869 195.59374999h483.17871069a39.55078125 39.55078125 0 0 1 37.96875 27.94921851l9.1625974 32.49755909c2.43896459 8.70117188 28.67431641 17.53417994 30.32226613 23.40087866Q861.36523463 327.42968775 891.09423828 413.12304687H175.81835937z" fill="#B3D9FF" p-id="4705"></path><path d="M156.04296875 452.67382812l731.68945313 0 0 118.65234376-731.68945313 0 0-118.65234375Z" fill="#96CAFF" p-id="4706"></path><path d="M156.04296875 591.1015625l731.68945313 0 0 118.65234375-731.68945313 0 0-118.65234375Z" fill="#96CAFF" p-id="4707"></path><path d="M156.04296875 729.52929689l731.68945313-2e-8 0 118.65234376-731.68945313 0 0-118.65234376Z" fill="#96CAFF" p-id="4708"></path><path d="M650.42773438 492.22460935h19.77539062v19.77539065h-19.77539063zM472.44921875 492.22460935h19.77539063v19.77539065h-19.77539063zM235.14453125 492.22460935h19.77539063v19.77539065h-19.77539063zM650.42773438 630.65234375h19.77539062v19.77539063h-19.77539063zM472.44921875 630.65234375h19.77539063v19.77539063h-19.77539063zM235.14453125 630.65234375h19.77539063v19.77539063h-19.77539063zM650.42773438 769.08007813h19.77539062v19.77539062h-19.77539063zM472.44921875 769.08007813h19.77539063v19.77539062h-19.77539063zM235.14453125 769.08007813h19.77539063v19.77539062h-19.77539063zM709.75390625 492.22460935h19.77539064v19.77539065h-19.77539064zM531.77539065 492.22460935h19.7753906v19.77539065h-19.77539063zM709.75390625 630.65234375h19.77539064v19.77539063h-19.77539064zM531.77539065 630.65234375h19.7753906v19.77539063h-19.77539063zM709.75390625 769.08007813h19.77539064v19.77539062h-19.77539064zM531.77539065 769.08007813h19.7753906v19.77539062h-19.77539063zM769.08007813 492.22460935h19.77539062v19.77539065h-19.77539063zM591.1015625 492.22460935h19.77539063v19.77539065h-19.77539063zM769.08007813 630.65234375h19.77539062v19.77539063h-19.77539063zM591.1015625 630.65234375h19.77539063v19.77539063h-19.77539063zM769.08007813 769.08007813h19.77539062v19.77539062h-19.77539063zM591.1015625 769.08007813h19.77539063v19.77539062h-19.77539063z" fill="#1574ee" p-id="4709"></path><path d="M156.04296875 432.8984375a19.77539065 19.77539065 0 0 0-19.77539063 19.77539063v79.10156249a19.77539065 19.77539065 0 0 0 19.77539063 19.77539063h711.9140625a19.77539065 19.77539065 0 0 0 19.77539063-19.77539063V452.67382812a19.77539065 19.77539065 0 0 0-19.77539063-19.77539062z m0-19.77539063h711.9140625a39.55078125 39.55078125 0 0 1 39.55078125 39.55078126v79.10156249a39.55078125 39.55078125 0 0 1-39.55078125 39.55078125H156.04296875a39.55078125 39.55078125 0 0 1-39.55078125-39.55078125V452.67382812a39.55078125 39.55078125 0 0 1 39.55078125-39.55078125z" fill="#1574ee" p-id="4710"></path><path d="M774.55126978 251.16259766c-14.30419897-10.21728541-23.59863255-19.77539065-28.47656251-35.79345704h-19.44580128L709.75390625 175.81835937h36.25488256a39.55078125 39.55078125 0 0 1 37.77099609 27.9492185c3.88916041 12.52441381 26.36718725 21.35742188 27.94921926 26.36718801l55.10742137 179.56054687-38.29833934 5.66894481c-19.3139651-62.75390599-31.77246119-99.40429712-46.86767578-148.38134741l-4.28466822-13.97460962z" fill="#96CAFF" p-id="4711"></path><path d="M156.04296875 571.32617188a19.77539065 19.77539065 0 0 0-19.77539063 19.77539062v79.1015625a19.77539065 19.77539065 0 0 0 19.77539063 19.77539063h711.9140625a19.77539065 19.77539065 0 0 0 19.77539063-19.77539063V591.1015625a19.77539065 19.77539065 0 0 0-19.77539063-19.77539063z m0-19.77539063h711.9140625a39.55078125 39.55078125 0 0 1 39.55078125 39.55078125v79.1015625a39.55078125 39.55078125 0 0 1-39.55078125 39.55078125H156.04296875a39.55078125 39.55078125 0 0 1-39.55078125-39.55078125V591.1015625a39.55078125 39.55078125 0 0 1 39.55078125-39.55078125z" fill="#175AA7" p-id="4712"></path><path d="M156.04296875 709.75390625a19.77539065 19.77539065 0 0 0-19.77539063 19.77539064v79.10156249a19.77539065 19.77539065 0 0 0 19.77539063 19.77539063h711.9140625a19.77539065 19.77539065 0 0 0 19.77539063-19.77539063V729.52929689a19.77539065 19.77539065 0 0 0-19.77539063-19.77539064z m0-19.77539063h711.9140625a39.55078125 39.55078125 0 0 1 39.55078125 39.55078127v79.10156249a39.55078125 39.55078125 0 0 1-39.55078125 39.55078125H156.04296875a39.55078125 39.55078125 0 0 1-39.55078125-39.55078125V729.52929689a39.55078125 39.55078125 0 0 1 39.55078125-39.55078127zM493.67480443 235.14453125L492.22460935 373.57226562h39.5507813l-1.45019508-138.42773437z m-74.882812 32.95898464L413.12304687 373.57226562h39.55078126l3.42773412-105.46874975z m149.63378857 16.74316354L571.32617188 373.57226562h39.55078125l-4.81201147-89.05517551z" fill="#1574ee" p-id="4713"></path><path d="M142.20019531 413.12304687l747.64160182-5.66894556 3.62548803 11.66748047-10.28320313 13.77685572-7.51464844-4.48242213-59.32617187-192.21679687c0 0.65917945-7.64648463-6.59179662-20.76416016-16.47949194l-5.27343775-3.88916041-1.91162059-6.26220652A19.77539065 19.77539065 0 0 0 769.54150365 195.59374999H234.68310572a19.77539065 19.77539065 0 0 0-18.91845728 13.97460964l-1.71386744 5.4711909-4.35058594 3.75732422a208.36669947 208.36669947 0 0 0-21.6210935 20.69824244L182.410156 260.52294897 144.83691381 403.10351537zM116.4921875 432.8984375l52.73437525-198.47900416q2.30712916-8.70117188 27.88330078-30.65185547A39.55078125 39.55078125 0 0 1 234.68310572 175.81835937h534.85839793a39.55078125 39.55078125 0 0 1 37.7709961 27.9492185q25.57617162 18.78662109 27.94921925 26.36718801L897.75195338 432.8984375z" fill="#1574ee" p-id="4714"></path></svg>