<svg t="1686744315003" class="icon" viewBox="0 0 1024 1024" version="1.1" xmlns="http://www.w3.org/2000/svg" p-id="1637" width="130" height="130"><path d="M83.33333333 401.8V167.73c0-44.02 35.69-79.71 79.71-79.71h234.07c44.02 0 79.71 35.69 79.71 79.71V401.8c0 44.02-35.69 79.71-79.71 79.71H163.04333333C119.02333333 481.52 83.33333333 445.83 83.33333333 401.8z" fill="#FF4F4F" p-id="1638"></path><path d="M83.33333333 856.27V622.2c0-44.02 35.69-79.71 79.71-79.71h234.07c44.02 0 79.71 35.69 79.71 79.71v234.2c0 43.95-35.63 79.58-79.58 79.58h-234.2c-44.02 0-79.71-35.69-79.71-79.71z" fill="#FFBC55" p-id="1639"></path><path d="M530.35333333 401.8V167.73c0-44.02 35.69-79.71 79.71-79.71H844.13333333c44.02 0 79.71 35.69 79.71 79.71V401.8c0 44.02-35.69 79.71-79.71 79.71H610.06333333c-44.02 0.01-79.71-35.68-79.71-79.71z" fill="#1AADF9" p-id="1640"></path><path d="M727.10333333 542.48c-108.66 0-196.75 88.09-196.75 196.75s88.09 196.75 196.75 196.75c53.61 0 102.1-21.58 137.59-56.36l61.13 39.36a37.107 37.107 0 0 0 20.16 5.94c12.28 0 24.28-6.04 31.43-17.12 11.14-17.33 6.15-40.43-11.18-51.57l-59.11-38.06c10.64-24.2 16.75-50.82 16.75-78.95-0.02-108.65-88.11-196.74-196.77-196.74" fill="#4381F1" p-id="1641"></path></svg>